<svg xmlns="http://www.w3.org/2000/svg" xmlns:xlink="http://www.w3.org/1999/xlink" viewBox="0,0,256,256" width="512px" height="512px" fill-rule="nonzero"><g fill="none" fill-rule="nonzero" stroke="none" stroke-width="none" stroke-linecap="none" stroke-linejoin="none" stroke-miterlimit="10" stroke-dasharray="" stroke-dashoffset="0" font-family="none" font-weight="none" font-size="none" text-anchor="none" style="mix-blend-mode: normal"><g transform="scale(4,4)"><ellipse cx="32" cy="61" rx="20" ry="3" fill="#000000" stroke="none" stroke-width="1" stroke-linecap="butt" stroke-linejoin="miter" opacity="0.3"></ellipse><path d="M36,8h-8c-3.866,0 -7,3.134 -7,7v1c0,1.105 0.895,2 2,2h7c1.105,0 2,0.895 2,2v0c0,1.105 -0.895,2 -2,2h-16c-3.314,0 -6,2.686 -6,6v8c0,3.314 2.686,6 6,6h7v-5c0,-2.761 2.239,-5 5,-5h12c2.761,0 5,-2.239 5,-5v-12c0,-3.866 -3.134,-7 -7,-7z" fill="#37d0ee" stroke="none" stroke-width="1" stroke-linecap="butt" stroke-linejoin="miter"></path><path d="M11.5,30.5v-2.5c0,-1.379 1.122,-2.5 2.5,-2.5" fill="none" stroke="#f2f2f2" stroke-width="3" stroke-linecap="round" stroke-linejoin="round"></path><path d="M23,22h-9c-3.314,0 -6,2.686 -6,6v8c0,0.69 0.122,1.349 0.336,1.966c2.602,-0.176 4.664,-2.32 4.664,-4.966v-5c0,-0.552 0.449,-1 1,-1h4c2.761,0 5,-2.238 5,-5z" fill="#ffffff" stroke="none" stroke-width="1" stroke-linecap="butt" stroke-linejoin="miter" opacity="0.3"></path><path d="M50,22h-7v5c0,2.761 -2.239,5 -5,5h-12c-2.761,0 -5,2.239 -5,5v12c0,3.866 3.134,7 7,7h8c3.866,0 7,-3.134 7,-7v-1c0,-1.105 -0.895,-2 -2,-2h-7c-1.105,0 -2,-0.895 -2,-2v0c0,-1.105 0.895,-2 2,-2h16c3.314,0 6,-2.686 6,-6v-8c0,-3.314 -2.686,-6 -6,-6z" fill="#ffce29" stroke="none" stroke-width="1" stroke-linecap="butt" stroke-linejoin="miter"></path><circle cx="28" cy="13" r="2" fill="#000000" stroke="none" stroke-width="1" stroke-linecap="butt" stroke-linejoin="miter"></circle><circle cx="36" cy="51" r="2" fill="#000000" stroke="none" stroke-width="1" stroke-linecap="butt" stroke-linejoin="miter"></circle><path d="M41,42h9c3.314,0 6,-2.686 6,-6v-8c0,-0.69 -0.122,-1.349 -0.336,-1.966c-2.602,0.176 -4.664,2.32 -4.664,4.966v5c0,0.552 -0.449,1 -1,1h-4c-2.761,0 -5,2.238 -5,5z" fill="#000000" stroke="none" stroke-width="1" stroke-linecap="butt" stroke-linejoin="miter" opacity="0.15"></path></g></g></svg>